<svg xmlns="http://www.w3.org/2000/svg" width="40" height="48" viewBox="0 0 40 48">
    <path fill="#BB9563" fill-rule="evenodd" d="M20.012 48H1.38C.62 48 0 47.387 0 46.634V1.364C0 .613.62 0 1.38 0c.76 0 1.38.613 1.38 1.364v43.877h17.252c2.653 0 5.073-.23 7.19-.683 6.578-1.4 10.054-5.164 10.054-10.888 0-7.222-7.907-9.547-8.808-9.788-.055-.017-.956-.315-.956-1.422 0-.91.622-1.33.95-1.424 4.246-1.778 6.401-4.422 6.401-7.86 0-9.943-12.11-10.446-14.537-10.446h-6.69v31.704h13.228c.76 0 1.38.613 1.38 1.364 0 .752-.62 1.363-1.38 1.363l-14.606.003c-.367 0-.713-.142-.975-.4a1.363 1.363 0 0 1-.407-.966V1.364A1.38 1.38 0 0 1 12.238 0h8.068c8.61 0 17.297 4.074 17.297 13.176 0 4.75-2.578 7.602-4.963 9.221 3.006 1.454 7.377 4.699 7.377 11.273 0 6.982-4.459 11.932-12.234 13.584-2.302.494-4.918.746-7.77.746"/>
</svg>
